<svg xmlns="http://www.w3.org/2000/svg" xmlns:xlink="http://www.w3.org/1999/xlink" viewBox="0 0 125.72 198.43"><defs><style>.cls-1{fill:none;}.cls-2{isolation:isolate;}.cls-3{clip-path:url(#clip-path);}.cls-4{clip-path:url(#clip-path-2);}.cls-5{fill:url(#Unbenannter_Verlauf);}.cls-6{clip-path:url(#clip-path-3);}.cls-7{fill:url(#Unbenannter_Verlauf_2);}.cls-8{opacity:0.5;mix-blend-mode:multiply;}.cls-9{clip-path:url(#clip-path-5);}.cls-10{fill:#93a2aa;}.cls-11{clip-path:url(#clip-path-6);}.cls-12{fill:#1a2e45;fill-rule:evenodd;}</style><clipPath id="clip-path" transform="translate(-65.31 -30)"><rect class="cls-1" width="250" height="250"/></clipPath><clipPath id="clip-path-2" transform="translate(-65.31 -30)"><path class="cls-1" d="M106,30,65.31,70.68h63.74a21.29,21.29,0,0,1,0,42.58H65.31V154h63.74a62.15,62.15,0,0,0,62-62h0a62.15,62.15,0,0,0-62-62Z"/></clipPath><linearGradient id="Unbenannter_Verlauf" y1="250" x2="1" y2="250" gradientTransform="matrix(0, 123.95, 170.08, 0, -42456.21, 0)" gradientUnits="userSpaceOnUse"><stop offset="0" stop-color="#ff9800"/><stop offset="1" stop-color="#f00090"/></linearGradient><clipPath id="clip-path-3" transform="translate(-65.31 -30)"><polygon class="cls-1" points="65.31 113.26 65.31 187.75 65.31 228.43 105.99 187.75 105.99 113.26 65.31 113.26"/></clipPath><linearGradient id="Unbenannter_Verlauf_2" y1="250" x2="1" y2="250" gradientTransform="matrix(0, 118.2, 81.37, 0, -20321.21, 83.26)" gradientUnits="userSpaceOnUse"><stop offset="0" stop-color="#f00090"/><stop offset="1" stop-color="#27b1fc"/></linearGradient><clipPath id="clip-path-5" transform="translate(-65.31 -30)"><rect class="cls-1" x="65.31" y="113.26" width="40.68" height="40.68"/></clipPath><clipPath id="clip-path-6" transform="translate(-65.31 -30)"><rect class="cls-1" x="105.99" y="113.26" width="5.98" height="40.68"/></clipPath></defs><g class="cls-2"><g id="Ebene_1" data-name="Ebene 1"><g class="cls-3"><g class="cls-4"><rect class="cls-5" width="125.72" height="123.95"/></g><g class="cls-6"><rect class="cls-7" y="83.26" width="40.68" height="115.17"/></g><g class="cls-3"><g class="cls-8"><g class="cls-9"><rect class="cls-10" y="83.26" width="40.68" height="40.68"/></g></g><g class="cls-8"><g class="cls-11"><polygon class="cls-12" points="40.68 83.26 46.66 123.95 40.68 123.95 40.68 83.26"/></g></g></g></g></g></g></svg>